# xmcd
#
# Track frame offsets:
#	150
#	14498
#	27659
#	41279
#	53985
#	67468
#	81465
#	94962
#	107852
#	122240
#	134341
#	146648
#	160378
#	172410
#	185250
#	198051
#	210860
#	222572
#	234247
#	248409
#	260797
#	274358
#	286865
#	300520
#
# Disc length: 4102 seconds
#
# Revision: 1
# Processed by: cddbd v1.5.2PL0 Copyright (c) Steve Scherf et al.
# Submitted via: audiograbber 1.83.01
#
DISCID=74100418
DTITLE=The Greatest Country Music Recordings Of All Time - Record 85 and 86
DYEAR=1900
DGENRE=
TTITLE0=Uncle Jimmy Thompson - Lynchburg
TTITLE1=Uncle Dave MAcon and Sid Harkreader - Tennessee Jubilee
TTITLE2=Uncle Dave Macon with Sam and Kirk McGee - Thank God For Everything
TTITLE3=Dr Humphrey Bate and His Possum Hunters - Old Joe
TTITLE4=DeFord Bailey - Pan American Blues
TTITLE5=Binkley Brothers' Dixie Clodhoppers - I'll Rise When The Rooster Crows
TTITLE6=Paul Warmack and His Gully Jumpers - Stone Rag
TTITLE7=Crook Brothers String Band - My Wife Died On Friday Night
TTITLE8=The Vagabonds - My Pretty Quadroon
TTITLE9=Asher Sizemore and Little Jimmy - Shake Hands With Mother Again
TTITLE10=Delmore Brothers - Brown Ferry Blues
TTITLE11=Arthur Smith - Crazy Blues
TTITLE12=Roy Acuff - Wabash Cannon Ball
TTITLE13=Roy Acuff - The Pecious Jewel
TTITLE14=Roy Acuff - Night Train To Memphis
TTITLE15=Roy Acuff - Live And Let Live
TTITLE16=Roy Acuff - Fire Ball Mail
TTITLE17=Roy Acuff - Low And Lonely
TTITLE18=Lew Childre - The Fishin' Blues
TTITLE19=Pee Wee King and Minnie Pearl - Jealous-Hearted Me
TTITLE20=Pee Wee King - The Tennessee Waltz
TTITLE21=Pee Wee King - Bonaparte's Retreat
TTITLE22=Paul Howard - Cotton Picker's Special
TTITLE23=Stringbean - Goin'To The Grand Ole Opry
EXTD=
EXTT0=
EXTT1=
EXTT2=
EXTT3=
EXTT4=
EXTT5=
EXTT6=
EXTT7=
EXTT8=
EXTT9=
EXTT10=
EXTT11=
EXTT12=
EXTT13=
EXTT14=
EXTT15=
EXTT16=
EXTT17=
EXTT18=
EXTT19=
EXTT20=
EXTT21=
EXTT22=
EXTT23=
PLAYORDER=
